<svg id="visual" viewBox="0 0 4000 2000" width="4000" height="2000" xmlns="http://www.w3.org/2000/svg" xmlns:xlink="http://www.w3.org/1999/xlink" version="1.1"><rect x="0" y="0" width="4000" height="2000" fill="#343d6e"></rect><path d="M0 337L95.2 332.2C190.3 327.3 380.7 317.7 571.2 311.8C761.7 306 952.3 304 1142.8 310C1333.3 316 1523.7 330 1714.2 315.2C1904.7 300.3 2095.3 256.7 2285.8 254C2476.3 251.3 2666.7 289.7 2857.2 301.3C3047.7 313 3238.3 298 3428.8 277.8C3619.3 257.7 3809.7 232.3 3904.8 219.7L4000 207L4000 0L3904.8 0C3809.7 0 3619.3 0 3428.8 0C3238.3 0 3047.7 0 2857.2 0C2666.7 0 2476.3 0 2285.8 0C2095.3 0 1904.7 0 1714.2 0C1523.7 0 1333.3 0 1142.8 0C952.3 0 761.7 0 571.2 0C380.7 0 190.3 0 95.2 0L0 0Z" fill="#343d6e"></path><path d="M0 265L95.2 262.2C190.3 259.3 380.7 253.7 571.2 243.5C761.7 233.3 952.3 218.7 1142.8 224.5C1333.3 230.3 1523.7 256.7 1714.2 269C1904.7 281.3 2095.3 279.7 2285.8 285C2476.3 290.3 2666.7 302.7 2857.2 306.7C3047.7 310.7 3238.3 306.3 3428.8 283.2C3619.3 260 3809.7 218 3904.8 197L4000 176L4000 0L3904.8 0C3809.7 0 3619.3 0 3428.8 0C3238.3 0 3047.7 0 2857.2 0C2666.7 0 2476.3 0 2285.8 0C2095.3 0 1904.7 0 1714.2 0C1523.7 0 1333.3 0 1142.8 0C952.3 0 761.7 0 571.2 0C380.7 0 190.3 0 95.2 0L0 0Z" fill="#434679"></path><path d="M0 227L95.2 221.8C190.3 216.7 380.7 206.3 571.2 214.5C761.7 222.7 952.3 249.3 1142.8 250.3C1333.3 251.3 1523.7 226.7 1714.2 219.7C1904.7 212.7 2095.3 223.3 2285.8 230.3C2476.3 237.3 2666.7 240.7 2857.2 248.2C3047.7 255.7 3238.3 267.3 3428.8 270C3619.3 272.7 3809.7 266.3 3904.8 263.2L4000 260L4000 0L3904.8 0C3809.7 0 3619.3 0 3428.8 0C3238.3 0 3047.7 0 2857.2 0C2666.7 0 2476.3 0 2285.8 0C2095.3 0 1904.7 0 1714.2 0C1523.7 0 1333.3 0 1142.8 0C952.3 0 761.7 0 571.2 0C380.7 0 190.3 0 95.2 0L0 0Z" fill="#524f85"></path><path d="M0 255L95.2 246C190.3 237 380.7 219 571.2 215.7C761.7 212.3 952.3 223.7 1142.8 232.7C1333.3 241.7 1523.7 248.3 1714.2 238.2C1904.7 228 2095.3 201 2285.8 183.2C2476.3 165.3 2666.7 156.7 2857.2 170C3047.7 183.3 3238.3 218.7 3428.8 230.3C3619.3 242 3809.7 230 3904.8 224L4000 218L4000 0L3904.8 0C3809.7 0 3619.3 0 3428.8 0C3238.3 0 3047.7 0 2857.2 0C2666.7 0 2476.3 0 2285.8 0C2095.3 0 1904.7 0 1714.2 0C1523.7 0 1333.3 0 1142.8 0C952.3 0 761.7 0 571.2 0C380.7 0 190.3 0 95.2 0L0 0Z" fill="#615990"></path><path d="M0 200L95.2 194.3C190.3 188.7 380.7 177.3 571.2 176.5C761.7 175.7 952.3 185.3 1142.8 189.5C1333.3 193.7 1523.7 192.3 1714.2 192.2C1904.7 192 2095.3 193 2285.8 191.5C2476.3 190 2666.7 186 2857.2 174.7C3047.7 163.3 3238.3 144.7 3428.8 148.8C3619.3 153 3809.7 180 3904.8 193.5L4000 207L4000 0L3904.8 0C3809.7 0 3619.3 0 3428.8 0C3238.3 0 3047.7 0 2857.2 0C2666.7 0 2476.3 0 2285.8 0C2095.3 0 1904.7 0 1714.2 0C1523.7 0 1333.3 0 1142.8 0C952.3 0 761.7 0 571.2 0C380.7 0 190.3 0 95.2 0L0 0Z" fill="#70629b"></path><path d="M0 138L95.2 134C190.3 130 380.7 122 571.2 128C761.7 134 952.3 154 1142.8 165.3C1333.3 176.7 1523.7 179.3 1714.2 183.3C1904.7 187.3 2095.3 192.7 2285.8 196.8C2476.3 201 2666.7 204 2857.2 190.7C3047.7 177.3 3238.3 147.7 3428.8 137.7C3619.3 127.7 3809.7 137.3 3904.8 142.2L4000 147L4000 0L3904.8 0C3809.7 0 3619.3 0 3428.8 0C3238.3 0 3047.7 0 2857.2 0C2666.7 0 2476.3 0 2285.8 0C2095.3 0 1904.7 0 1714.2 0C1523.7 0 1333.3 0 1142.8 0C952.3 0 761.7 0 571.2 0C380.7 0 190.3 0 95.2 0L0 0Z" fill="#7f6ca6"></path><path d="M0 179L95.2 176.8C190.3 174.7 380.7 170.3 571.2 159C761.7 147.7 952.3 129.3 1142.8 124.8C1333.3 120.3 1523.7 129.7 1714.2 137.3C1904.7 145 2095.3 151 2285.8 145.2C2476.3 139.3 2666.7 121.7 2857.2 119.8C3047.7 118 3238.3 132 3428.8 138.3C3619.3 144.7 3809.7 143.3 3904.8 142.7L4000 142L4000 0L3904.8 0C3809.7 0 3619.3 0 3428.8 0C3238.3 0 3047.7 0 2857.2 0C2666.7 0 2476.3 0 2285.8 0C2095.3 0 1904.7 0 1714.2 0C1523.7 0 1333.3 0 1142.8 0C952.3 0 761.7 0 571.2 0C380.7 0 190.3 0 95.2 0L0 0Z" fill="#8f76b2"></path><path d="M0 95L95.2 96.8C190.3 98.7 380.7 102.3 571.2 105.2C761.7 108 952.3 110 1142.8 109.2C1333.3 108.3 1523.7 104.7 1714.2 110.8C1904.7 117 2095.3 133 2285.8 139.2C2476.3 145.3 2666.7 141.7 2857.2 134.3C3047.7 127 3238.3 116 3428.8 106.7C3619.3 97.3 3809.7 89.7 3904.8 85.8L4000 82L4000 0L3904.8 0C3809.7 0 3619.3 0 3428.8 0C3238.3 0 3047.7 0 2857.2 0C2666.7 0 2476.3 0 2285.8 0C2095.3 0 1904.7 0 1714.2 0C1523.7 0 1333.3 0 1142.8 0C952.3 0 761.7 0 571.2 0C380.7 0 190.3 0 95.2 0L0 0Z" fill="#9f80bd"></path><path d="M0 112L95.2 107.8C190.3 103.7 380.7 95.3 571.2 91.7C761.7 88 952.3 89 1142.8 91.2C1333.3 93.3 1523.7 96.7 1714.2 95.8C1904.7 95 2095.3 90 2285.8 90.7C2476.3 91.3 2666.7 97.7 2857.2 97.2C3047.7 96.7 3238.3 89.3 3428.8 90.8C3619.3 92.3 3809.7 102.7 3904.8 107.8L4000 113L4000 0L3904.8 0C3809.7 0 3619.3 0 3428.8 0C3238.3 0 3047.7 0 2857.2 0C2666.7 0 2476.3 0 2285.8 0C2095.3 0 1904.7 0 1714.2 0C1523.7 0 1333.3 0 1142.8 0C952.3 0 761.7 0 571.2 0C380.7 0 190.3 0 95.2 0L0 0Z" fill="#af8ac8"></path><path d="M0 88L95.2 82.8C190.3 77.7 380.7 67.3 571.2 68.3C761.7 69.3 952.3 81.7 1142.8 80.7C1333.3 79.7 1523.7 65.3 1714.2 57.5C1904.7 49.7 2095.3 48.3 2285.8 49.8C2476.3 51.3 2666.7 55.7 2857.2 62.3C3047.7 69 3238.3 78 3428.8 80.7C3619.3 83.3 3809.7 79.7 3904.8 77.8L4000 76L4000 0L3904.8 0C3809.7 0 3619.3 0 3428.8 0C3238.3 0 3047.7 0 2857.2 0C2666.7 0 2476.3 0 2285.8 0C2095.3 0 1904.7 0 1714.2 0C1523.7 0 1333.3 0 1142.8 0C952.3 0 761.7 0 571.2 0C380.7 0 190.3 0 95.2 0L0 0Z" fill="#bf94d3"></path><path d="M0 72L95.2 72.5C190.3 73 380.7 74 571.2 69.8C761.7 65.7 952.3 56.3 1142.8 49C1333.3 41.7 1523.7 36.3 1714.2 34C1904.7 31.7 2095.3 32.3 2285.8 38.5C2476.3 44.7 2666.7 56.3 2857.2 60.3C3047.7 64.3 3238.3 60.7 3428.8 61.7C3619.3 62.7 3809.7 68.3 3904.8 71.2L4000 74L4000 0L3904.8 0C3809.7 0 3619.3 0 3428.8 0C3238.3 0 3047.7 0 2857.2 0C2666.7 0 2476.3 0 2285.8 0C2095.3 0 1904.7 0 1714.2 0C1523.7 0 1333.3 0 1142.8 0C952.3 0 761.7 0 571.2 0C380.7 0 190.3 0 95.2 0L0 0Z" fill="#cf9fde"></path><path d="M0 39L95.2 35.5C190.3 32 380.7 25 571.2 21.3C761.7 17.7 952.3 17.3 1142.8 21.5C1333.3 25.7 1523.7 34.3 1714.2 39.2C1904.7 44 2095.3 45 2285.8 39.8C2476.3 34.7 2666.7 23.3 2857.2 21.5C3047.7 19.7 3238.3 27.3 3428.8 28.7C3619.3 30 3809.7 25 3904.8 22.5L4000 20L4000 0L3904.8 0C3809.7 0 3619.3 0 3428.8 0C3238.3 0 3047.7 0 2857.2 0C2666.7 0 2476.3 0 2285.8 0C2095.3 0 1904.7 0 1714.2 0C1523.7 0 1333.3 0 1142.8 0C952.3 0 761.7 0 571.2 0C380.7 0 190.3 0 95.2 0L0 0Z" fill="#e0a9e9"></path></svg>