<svg id="visual" viewBox="0 0 3000 4000" width="3000" height="4000" xmlns="http://www.w3.org/2000/svg" xmlns:xlink="http://www.w3.org/1999/xlink" version="1.1"><rect x="0" y="0" width="3000" height="4000" fill="#343d6e"></rect><path d="M0 145L45.5 140.5C91 136 182 127 272.8 128.2C363.7 129.3 454.3 140.7 545.2 158.5C636 176.3 727 200.7 818 202.7C909 204.7 1000 184.3 1091 180.5C1182 176.7 1273 189.3 1363.8 206.7C1454.7 224 1545.3 246 1636.2 254.8C1727 263.7 1818 259.3 1909 254.3C2000 249.3 2091 243.7 2182 227.3C2273 211 2364 184 2454.8 173.5C2545.7 163 2636.3 169 2727.2 188.2C2818 207.3 2909 239.7 2954.5 255.8L3000 272L3000 0L2954.5 0C2909 0 2818 0 2727.2 0C2636.3 0 2545.7 0 2454.8 0C2364 0 2273 0 2182 0C2091 0 2000 0 1909 0C1818 0 1727 0 1636.2 0C1545.3 0 1454.7 0 1363.8 0C1273 0 1182 0 1091 0C1000 0 909 0 818 0C727 0 636 0 545.2 0C454.3 0 363.7 0 272.8 0C182 0 91 0 45.5 0L0 0Z" fill="#e0a9e9" stroke-linecap="round" stroke-linejoin="miter"></path></svg>