<svg id="visual" viewBox="0 0 4000 3000" width="4000" height="3000" xmlns="http://www.w3.org/2000/svg" xmlns:xlink="http://www.w3.org/1999/xlink" version="1.1"><rect x="0" y="0" width="4000" height="3000" fill="#343d6e"></rect><path d="M0 184L66.7 176.3C133.3 168.7 266.7 153.3 400 153.2C533.3 153 666.7 168 800 169.7C933.3 171.3 1066.7 159.7 1200 161C1333.3 162.3 1466.7 176.7 1600 173.8C1733.3 171 1866.7 151 2000 148.8C2133.3 146.7 2266.7 162.3 2400 164.3C2533.3 166.3 2666.7 154.7 2800 148.5C2933.3 142.3 3066.7 141.7 3200 145.5C3333.3 149.3 3466.7 157.7 3600 162.2C3733.3 166.7 3866.7 167.3 3933.3 167.7L4000 168L4000 0L3933.3 0C3866.7 0 3733.3 0 3600 0C3466.7 0 3333.3 0 3200 0C3066.7 0 2933.3 0 2800 0C2666.7 0 2533.3 0 2400 0C2266.7 0 2133.3 0 2000 0C1866.7 0 1733.3 0 1600 0C1466.7 0 1333.3 0 1200 0C1066.7 0 933.3 0 800 0C666.7 0 533.3 0 400 0C266.7 0 133.3 0 66.7 0L0 0Z" fill="#faf0ff" stroke-linecap="round" stroke-linejoin="miter"></path></svg>