<svg id="visual" viewBox="0 0 320 1250" width="320" height="1250" xmlns="http://www.w3.org/2000/svg" xmlns:xlink="http://www.w3.org/1999/xlink" version="1.1"><rect x="0" y="0" width="320" height="1250" fill="#343d6e"></rect><path d="M0 45L4.8 43.5C9.7 42 19.3 39 29 39.3C38.7 39.7 48.3 43.3 58 49C67.7 54.7 77.3 62.3 87 62.8C96.7 63.3 106.3 56.7 116 55.3C125.7 54 135.3 58 145.2 63.5C155 69 165 76 174.8 78.8C184.7 81.7 194.3 80.3 204 78.8C213.7 77.3 223.3 75.7 233 70.5C242.7 65.3 252.3 56.7 262 53.3C271.7 50 281.3 52 291 58C300.7 64 310.3 74 315.2 79L320 84L320 0L315.2 0C310.3 0 300.7 0 291 0C281.3 0 271.7 0 262 0C252.3 0 242.7 0 233 0C223.3 0 213.7 0 204 0C194.3 0 184.7 0 174.8 0C165 0 155 0 145.2 0C135.3 0 125.7 0 116 0C106.3 0 96.7 0 87 0C77.3 0 67.7 0 58 0C48.3 0 38.7 0 29 0C19.3 0 9.7 0 4.8 0L0 0Z" fill="#faf0ff" stroke-linecap="round" stroke-linejoin="miter"></path></svg>