<svg id="visual" viewBox="0 0 2000 3000" width="2000" height="3000" xmlns="http://www.w3.org/2000/svg" xmlns:xlink="http://www.w3.org/1999/xlink" version="1.1"><rect x="0" y="0" width="2000" height="3000" fill="#343d6e"></rect><path d="M0 189L66.7 171.5C133.3 154 266.7 119 400 109.2C533.3 99.3 666.7 114.7 800 132.3C933.3 150 1066.7 170 1200 163.8C1333.3 157.7 1466.7 125.3 1600 124.3C1733.3 123.3 1866.7 153.7 1933.3 168.8L2000 184L2000 0L1933.3 0C1866.7 0 1733.3 0 1600 0C1466.7 0 1333.3 0 1200 0C1066.7 0 933.3 0 800 0C666.7 0 533.3 0 400 0C266.7 0 133.3 0 66.7 0L0 0Z" fill="#faf0ff"></path></svg>