<svg id="visual" viewBox="0 0 1565 120" width="1565" height="120" xmlns="http://www.w3.org/2000/svg" xmlns:xlink="http://www.w3.org/1999/xlink" version="1.1"><rect x="0" y="0" width="1565" height="120" fill="#e0a9e9"></rect><defs><linearGradient id="grad1_0" x1="92.3%" y1="0%" x2="100%" y2="100%"><stop offset="-210.83333333333334%" stop-color="#e0a9e9" stop-opacity="1"></stop><stop offset="310.83333333333337%" stop-color="#e0a9e9" stop-opacity="1"></stop></linearGradient></defs><defs><linearGradient id="grad2_0" x1="0%" y1="0%" x2="7.7%" y2="100%"><stop offset="-210.83333333333334%" stop-color="#e0a9e9" stop-opacity="1"></stop><stop offset="310.83333333333337%" stop-color="#e0a9e9" stop-opacity="1"></stop></linearGradient></defs><g transform="translate(1565, 0)"><path d="M0 120C-21.2 117 -42.3 113.9 -60 103.9C-77.7 93.9 -91.9 77 -101.3 58.5C-110.7 40 -115.4 20 -120 0L0 0Z" fill="#343d6e"></path></g><g transform="translate(0, 120)"><path d="M0 -120C19.2 -114 38.4 -108 57 -98.7C75.6 -89.5 93.5 -77 103.9 -60C114.3 -43 117.2 -21.5 120 0L0 0Z" fill="#343d6e"></path></g></svg>