<svg id="visual" viewBox="0 0 2500 80" width="2500" height="80" xmlns="http://www.w3.org/2000/svg" xmlns:xlink="http://www.w3.org/1999/xlink" version="1.1"><rect x="0" y="0" width="2500" height="80" fill="#e0a9e9"></rect><path d="M0 41L22 39.7C44 38.3 88 35.7 131.8 35.3C175.7 35 219.3 37 263.2 37.3C307 37.7 351 36.3 394.8 32C438.7 27.7 482.3 20.3 526.2 21.3C570 22.3 614 31.7 657.8 33.3C701.7 35 745.3 29 789.2 26C833 23 877 23 921 24.7C965 26.3 1009 29.7 1052.8 27.3C1096.7 25 1140.3 17 1184.2 16.2C1228 15.3 1272 21.7 1315.8 26.3C1359.7 31 1403.3 34 1447.2 33.8C1491 33.7 1535 30.3 1579 27C1623 23.7 1667 20.3 1710.8 21.2C1754.7 22 1798.3 27 1842.2 30.7C1886 34.3 1930 36.7 1973.8 38C2017.7 39.3 2061.3 39.7 2105.2 36.8C2149 34 2193 28 2236.8 23.2C2280.7 18.3 2324.3 14.7 2368.2 15.3C2412 16 2456 21 2478 23.5L2500 26L2500 0L2478 0C2456 0 2412 0 2368.2 0C2324.3 0 2280.7 0 2236.8 0C2193 0 2149 0 2105.2 0C2061.3 0 2017.7 0 1973.8 0C1930 0 1886 0 1842.2 0C1798.3 0 1754.7 0 1710.8 0C1667 0 1623 0 1579 0C1535 0 1491 0 1447.2 0C1403.3 0 1359.7 0 1315.8 0C1272 0 1228 0 1184.2 0C1140.3 0 1096.7 0 1052.8 0C1009 0 965 0 921 0C877 0 833 0 789.2 0C745.3 0 701.7 0 657.8 0C614 0 570 0 526.2 0C482.3 0 438.7 0 394.8 0C351 0 307 0 263.2 0C219.3 0 175.7 0 131.8 0C88 0 44 0 22 0L0 0Z" fill="#343d6e" stroke-linecap="round" stroke-linejoin="miter"></path></svg>