<svg id="visual" viewBox="0 0 4000 100" width="4000" height="100" xmlns="http://www.w3.org/2000/svg" xmlns:xlink="http://www.w3.org/1999/xlink" version="1.1"><rect x="0" y="0" width="4000" height="100" fill="#343d6e"></rect><path d="M0 49L333.3 49C666.7 49 1333.3 49 2000 49C2666.7 49 3333.3 49 3666.7 49L4000 49L4000 101L3666.7 101C3333.3 101 2666.7 101 2000 101C1333.3 101 666.7 101 333.3 101L0 101Z" fill="#343d6e"></path><path d="M0 53L333.3 53C666.7 53 1333.3 53 2000 53C2666.7 53 3333.3 53 3666.7 53L4000 53L4000 101L3666.7 101C3333.3 101 2666.7 101 2000 101C1333.3 101 666.7 101 333.3 101L0 101Z" fill="#434679"></path><path d="M0 57L333.3 57C666.7 57 1333.3 57 2000 57C2666.7 57 3333.3 57 3666.7 57L4000 57L4000 101L3666.7 101C3333.3 101 2666.7 101 2000 101C1333.3 101 666.7 101 333.3 101L0 101Z" fill="#524f85"></path><path d="M0 61L333.3 61C666.7 61 1333.3 61 2000 61C2666.7 61 3333.3 61 3666.7 61L4000 61L4000 101L3666.7 101C3333.3 101 2666.7 101 2000 101C1333.3 101 666.7 101 333.3 101L0 101Z" fill="#615990"></path><path d="M0 64L333.3 64C666.7 64 1333.3 64 2000 64C2666.7 64 3333.3 64 3666.7 64L4000 64L4000 101L3666.7 101C3333.3 101 2666.7 101 2000 101C1333.3 101 666.7 101 333.3 101L0 101Z" fill="#70629b"></path><path d="M0 68L333.3 68C666.7 68 1333.3 68 2000 68C2666.7 68 3333.3 68 3666.7 68L4000 68L4000 101L3666.7 101C3333.3 101 2666.7 101 2000 101C1333.3 101 666.7 101 333.3 101L0 101Z" fill="#7f6ca6"></path><path d="M0 72L333.3 72C666.7 72 1333.3 72 2000 72C2666.7 72 3333.3 72 3666.7 72L4000 72L4000 101L3666.7 101C3333.3 101 2666.7 101 2000 101C1333.3 101 666.7 101 333.3 101L0 101Z" fill="#8f76b2"></path><path d="M0 76L333.3 76C666.7 76 1333.3 76 2000 76C2666.7 76 3333.3 76 3666.7 76L4000 76L4000 101L3666.7 101C3333.3 101 2666.7 101 2000 101C1333.3 101 666.7 101 333.3 101L0 101Z" fill="#9f80bd"></path><path d="M0 80L333.3 80C666.7 80 1333.3 80 2000 80C2666.7 80 3333.3 80 3666.7 80L4000 80L4000 101L3666.7 101C3333.3 101 2666.7 101 2000 101C1333.3 101 666.7 101 333.3 101L0 101Z" fill="#af8ac8"></path><path d="M0 84L333.3 84C666.7 84 1333.3 84 2000 84C2666.7 84 3333.3 84 3666.7 84L4000 84L4000 101L3666.7 101C3333.3 101 2666.7 101 2000 101C1333.3 101 666.7 101 333.3 101L0 101Z" fill="#bf94d3"></path><path d="M0 87L333.3 87C666.7 87 1333.3 87 2000 87C2666.7 87 3333.3 87 3666.7 87L4000 87L4000 101L3666.7 101C3333.3 101 2666.7 101 2000 101C1333.3 101 666.7 101 333.3 101L0 101Z" fill="#cf9fde"></path><path d="M0 91L333.3 91C666.7 91 1333.3 91 2000 91C2666.7 91 3333.3 91 3666.7 91L4000 91L4000 101L3666.7 101C3333.3 101 2666.7 101 2000 101C1333.3 101 666.7 101 333.3 101L0 101Z" fill="#e0a9e9"></path></svg>