<svg id="visual" viewBox="0 0 3000 4850" width="3000" height="4850" xmlns="http://www.w3.org/2000/svg" xmlns:xlink="http://www.w3.org/1999/xlink" version="1.1"><rect x="0" y="0" width="3000" height="4850" fill="#343d6e"></rect><path d="M0 280L41.7 267.5C83.3 255 166.7 230 250 211.7C333.3 193.3 416.7 181.7 500 200.3C583.3 219 666.7 268 750 279.2C833.3 290.3 916.7 263.7 1000 235.3C1083.3 207 1166.7 177 1250 177.7C1333.3 178.3 1416.7 209.7 1500 208.5C1583.3 207.3 1666.7 173.7 1750 184.2C1833.3 194.7 1916.7 249.3 2000 278.8C2083.3 308.3 2166.7 312.7 2250 317.5C2333.3 322.3 2416.7 327.7 2500 299.7C2583.3 271.7 2666.7 210.3 2750 213.7C2833.3 217 2916.7 285 2958.3 319L3000 353L3000 0L2958.3 0C2916.7 0 2833.3 0 2750 0C2666.7 0 2583.3 0 2500 0C2416.7 0 2333.3 0 2250 0C2166.7 0 2083.3 0 2000 0C1916.7 0 1833.3 0 1750 0C1666.7 0 1583.3 0 1500 0C1416.7 0 1333.3 0 1250 0C1166.7 0 1083.3 0 1000 0C916.7 0 833.3 0 750 0C666.7 0 583.3 0 500 0C416.7 0 333.3 0 250 0C166.7 0 83.3 0 41.7 0L0 0Z" fill="#e0a9e9" stroke-linecap="round" stroke-linejoin="miter"></path></svg>